#!OML:ASF H:\Terrain\Patient Classification 1\Walking\steve\steve.ASF
:FULLY-SPECIFIED
:DEGREES
234
root 9.98764 16.0863 19.206 7.72972 4.66706 5.436
lowerback 1.0074 -1.05723 -6.08516
upperback -3.20102 -1.59646 -0.0586772
thorax -3.71791 -0.612711 3.41421
lowerneck -8.95853 -0.997875 -2.10239
upperneck 12.2042 -1.49574 3.32279
head 5.18256 -0.604818 1.2731
rclavicle 1.27781e-014 6.75868e-015
rhumerus -80.1237 -25.9938 -35.4658
rradius 13.8221
rwrist 29.3941
rhand -16.9227 -38.5636
rfingers 7.12502
rthumb 9.30997 -68.3381
lclavicle 1.27781e-014 6.75868e-015
lhumerus -0.286617 -12.4993 82.2122
lradius 58.4089
lwrist 23.2726
lhand -27.0809 -19.1308
lfingers 7.12502
lthumb -0.498246 10.8484
rfemur -46.8637 0.0786017 17.5456
rtibia 25.7749
rfoot -16.1197 7.07583
rtoes -13.4003
lfemur 20.5504 0.383905 -28.864
ltibia 6.04305e-014
lfoot -7.2575 -8.41656
ltoes 9.96389
235
root 9.99725 16.0284 19.4906 7.44473 4.48061 5.25454
lowerback 1.11982 -1.00466 -5.80875
upperback -3.13688 -1.51749 0.127528
thorax -3.72299 -0.579965 3.45147
lowerneck -8.925 -0.97702 -2.39456
upperneck 12.0946 -1.41065 3.22749
head 5.14175 -0.583782 1.29718
rclavicle -3.05631e-014 -7.95139e-016
rhumerus -81.1446 -26.2492 -32.9298
rradius 13.6787
rwrist 31.086
rhand -17.4394 -37.8116
rfingers 7.12502
rthumb 8.8113 -67.6076
lclavicle -3.05631e-014 -7.95139e-016
lhumerus -0.759906 -12.4852 82.0831
lradius 60.0775
lwrist 23.2494
lhand -27.6303 -19.8834
lfingers 7.12502
lthumb -1.02883 10.0939
rfemur -46.3347 0.696258 17.7098
rtibia 27.1382
rfoot -15.6619 6.9526
rtoes -14.0762
lfemur 21.9886 0.352864 -28.5928
ltibia -3.18055e-015
lfoot -5.99757 -8.28004
ltoes 7.77076
236
root 10.0184 15.9774 19.7751 7.15366 4.53678 5.21384
lowerback 1.21347 -1.0466 -5.44536
upperback -3.04588 -1.56205 0.231767
thorax -3.68065 -0.614533 3.35842
lowerneck -9.02847 -1.00397 -2.53791
upperneck 12.0686 -1.38861 2.96367
head 5.14984 -0.596367 1.23962
rclavicle -5.15598e-015 -1.59028e-015
rhumerus -83.3561 -27.2238 -27.1553
rradius 13.1388
rwrist 36.0301
rhand -17.5319 -37.6202
rfingers 7.12502
rthumb 8.72212 -67.42
lclavicle -5.15598e-015 -1.59028e-015
lhumerus -1.19226 -12.3304 82.0207
lradius 61.4113
lwrist 23.2675
lhand -28.5415 -20.5196
lfingers 7.12502
lthumb -1.90886 9.45156
rfemur -45.8286 0.202626 18.2789
rtibia 28.7494
rfoot -13.2958 6.75725
rtoes -12.8325
lfemur 23.5178 0.124363 -28.6697
ltibia -4.77083e-014
lfoot -5.14648 -7.61545
ltoes -6.11775
237
root 10.0371 15.9848 20.071 7.05466 4.46705 4.89162
lowerback 1.32079 -1.04086 -4.78171
upperback -3.24663 -1.53942 0.387445
thorax -3.96171 -0.609311 3.15206
lowerneck -8.9964 -0.904933 -2.52393
upperneck 12.3035 -1.21041 2.58398
head 5.20998 -0.533892 1.13219
rclavicle -3.19919e-015 1.51076e-014
rhumerus -83.6875 -26.8356 -26.4107
rradius 13.1126
rwrist 36.4227
rhand -17.0836 -38.2106
rfingers 7.12502
rthumb 9.15467 -67.9919
lclavicle -3.19919e-015 1.51076e-014
lhumerus -2.12051 -11.9514 82.1893
lradius 62.6481
lwrist 23.18
lhand -29.4523 -20.9078
lfingers 7.12502
lthumb -2.78852 9.05367
rfemur -45.6247 -0.045911 19.0221
rtibia 30.3303
rfoot -8.85091 5.12138
rtoes -13.8259
lfemur 24.5272 -0.0328724 -28.27
ltibia -2.8625e-014
lfoot -2.53472 -7.15796
ltoes -9.50176
238
root 10.046 16.0067 20.3708 7.12039 4.12486 4.41769
lowerback 1.1507 -0.955648 -4.16793
upperback -3.37536 -1.3909 0.632724
thorax -4.01756 -0.547111 3.05341
lowerneck -9.37612 -0.828222 -2.48
upperneck 12.7064 -1.04694 2.12401
head 5.39307 -0.48105 0.992997
rclavicle 3.09234e-014 0
rhumerus -82.5254 -26.0723 -29.1169
rradius 13.4153
rwrist 33.8807
rhand -17.0275 -38.5918
rfingers 7.12502
rthumb 9.20883 -68.3707
lclavicle 3.09234e-014 0
lhumerus -3.15 -11.4782 82.4008
lradius 63.9803
lwrist 23.1906
lhand -30.0254 -21.1157
lfingers 7.12502
lthumb -3.34195 8.8378
rfemur -45.8202 0.764656 19.3249
rtibia 31.7124
rfoot -7.15875 4.07846
rtoes -15.9986
lfemur 25.2212 0.0383729 -27.6377
ltibia 5.08889e-014
lfoot 0.94513 -6.22434
ltoes -3.9106
239
root 10.0572 16.0189 20.6603 7.2427 3.86044 4.29001
lowerback 0.936829 -0.898378 -3.88392
upperback -3.36117 -1.29145 0.759254
thorax -3.89154 -0.507648 3.01611
lowerneck -9.73067 -0.727539 -2.57037
upperneck 12.7135 -0.863166 1.94551
head 5.45093 -0.406376 0.964922
rclavicle 7.2867e-015 0
rhumerus -81.9973 -26.1449 -29.8535
rradius 13.5413
rwrist 33.3542
rhand -16.8568 -38.7975
rfingers 7.12502
rthumb 9.3735 -68.5691
lclavicle 7.2867e-015 0
lhumerus -4.10025 -11.0937 82.5159
lradius 65.2644
lwrist 23.2388
lhand -30.1178 -20.9899
lfingers 7.12502
lthumb -3.43123 8.96218
rfemur -46.0322 1.50611 19.1068
rtibia 32.8428
rfoot -5.55907 3.478
rtoes -10.0228
lfemur 25.8191 -0.0103178 -27.3519
ltibia -6.67916e-014
lfoot 4.74199 -4.27192
ltoes 5.23532
240
root 10.0686 16.009 20.9379 7.54346 3.67777 3.68602
lowerback 0.790998 -0.826568 -3.05304
upperback -3.57195 -1.15969 1.00023
thorax -4.04636 -0.458327 2.79345
lowerneck -9.60598 -0.583984 -2.65484
upperneck 12.4426 -0.634339 1.78971
head 5.33995 -0.30958 0.946629
rclavicle 2.45872e-014 -1.74931e-014
rhumerus -82.0274 -26.5463 -28.9968
rradius 13.4694
rwrist 34.188
rhand -16.2185 -39.083
rfingers 7.12502
rthumb 9.98937 -68.826
lclavicle 2.45872e-014 -1.74931e-014
lhumerus -5.34696 -10.7118 82.8567
lradius 66.3454
lwrist 23.3473
lhand -30.1558 -20.7642
lfingers 7.12502
lthumb -3.4679 9.18729
rfemur -46.313 2.09446 19.5245
rtibia 34.0313
rfoot -4.30565 2.78088
rtoes -1.16606
lfemur 21.7856 -0.0746204 -26.5495
ltibia 8.69991
lfoot 5.62795 -4.32615
ltoes 5.79036
241
root 10.0819 15.9989 21.2115 7.75302 3.45313 2.77911
lowerback 0.646825 -0.724234 -1.9328
upperback -3.69379 -0.974375 1.36208
thorax -4.11284 -0.394274 2.52992
lowerneck -10.0142 -0.578108 -2.44069
upperneck 12.625 -0.551738 1.08914
head 5.46234 -0.307671 0.698346
rclavicle 9.02607e-015 -1.51076e-014
rhumerus -82.9459 -27.6816 -25.4423
rradius 12.9906
rwrist 37.7615
rhand -16.1691 -39.0939
rfingers 7.12502
rthumb 10.037 -68.8346
lclavicle 9.02607e-015 -1.51076e-014
lhumerus -6.49677 -10.2651 83.3518
lradius 67.1599
lwrist 23.619
lhand -30.5936 -20.8315
lfingers 7.12502
lthumb -3.89071 9.11271
rfemur -46.3622 2.68981 20.357
rtibia 35.3895
rfoot -3.84571 1.88429
rtoes 0.401295
lfemur 17.8079 -0.018453 -25.478
ltibia 17.4529
lfoot 7.84825 -3.17795
ltoes 3.60176
242
root 10.1023 16.004 21.4803 7.59746 3.28652 2.32536
lowerback 0.694516 -0.640221 -1.18215
upperback -3.50948 -0.83466 1.55804
thorax -3.96217 -0.349468 2.3035
lowerneck -10.5797 -0.524658 -2.08496
upperneck 12.6885 -0.418053 0.357003
head 5.57398 -0.277615 0.420114
rclavicle 5.46658e-016 -1.59028e-015
rhumerus -82.9867 -28.6275 -24.1486
rradius 12.8086
rwrist 39.8741
rhand -16.6246 -38.9017
rfingers 7.12502
rthumb 9.59751 -68.6631
lclavicle 5.46658e-016 -1.59028e-015
lhumerus -7.43611 -9.89319 83.7148
lradius 67.8877
lwrist 23.927
lhand -30.9366 -20.7519
lfingers 7.12502
lthumb -4.22191 9.18605
rfemur -45.9974 2.85411 20.8855
rtibia 36.9727
rfoot -3.91097 1.86094
rtoes -1.87561
lfemur 15.1941 0.129472 -24.799
ltibia 24.0863
lfoot 11.4269 0.0826083
ltoes 8.71577
243
root 10.1214 16.0081 21.737 7.40944 3.23104 1.97964
lowerback 0.827103 -0.552035 -0.476978
upperback -3.31606 -0.694739 1.66143
thorax -3.84916 -0.302602 2.00809
lowerneck -10.6884 -0.433421 -2.15553
upperneck 12.3689 -0.274793 0.313159
head 5.49078 -0.212266 0.428785
rclavicle 9.28076e-015 5.56597e-015
rhumerus -81.1433 -28.732 -27.3603
rradius 13.1443
rwrist 37.8804
rhand -16.9894 -38.2939
rfingers 7.12502
rthumb 9.24553 -68.0712
lclavicle 9.28076e-015 5.56597e-015
lhumerus -8.41751 -9.7151 84.0267
lradius 68.4558
lwrist 24.2294
lhand -30.8674 -20.6054
lfingers 7.12502
lthumb -4.15508 9.33379
rfemur -45.716 2.63279 21.507
rtibia 38.7505
rfoot -4.24345 2.81274
rtoes -1.27793
lfemur 12.9952 0.0984749 -24.2427
ltibia 29.5956
lfoot 15.1131 4.2555
ltoes 11.8932
244
root 10.1451 16.01 21.9893 7.08378 3.23189 1.79181
lowerback 1.20704 -0.452232 0.107414
upperback -3.14105 -0.542152 1.68445
thorax -3.89337 -0.24469 1.70002
lowerneck -10.8226 -0.595942 -2.59504
upperneck 12.22 -0.451254 0.544036
head 5.47095 -0.30112 0.558761
rclavicle -4.73356e-015 -5.56597e-015
rhumerus -79.8555 -29.0952 -29.3047
rradius 13.4431
rwrist 36.7102
rhand -17.1456 -37.6698
rfingers 7.12502
rthumb 9.09488 -67.4537
lclavicle -4.73356e-015 -5.56597e-015
lhumerus -9.4675 -9.67566 84.4797
lradius 68.7104
lwrist 24.4532
lhand -30.9328 -20.5223
lfingers 7.12502
lthumb -4.21827 9.41566
rfemur -45.3279 2.10374 22.0475
rtibia 40.4812
rfoot -4.5587 4.06319
rtoes 0.642007
lfemur 11.3133 -0.30903 -24.0679
ltibia 34.4818
lfoot 17.2676 8.65793
ltoes 12.4158
245
root 10.178 16.0308 22.2476 6.46697 3.26912 2.02645
lowerback 1.97395 -0.403899 0.334663
upperback -2.96268 -0.468765 1.52652
thorax -4.14801 -0.217415 1.41233
lowerneck -10.8098 -0.769241 -2.78302
upperneck 12.0437 -0.670995 0.656746
head 5.41837 -0.407718 0.607449
rclavicle -1.17531e-014 9.54166e-015
rhumerus -79.1371 -29.7507 -29.9623
rradius 13.4561
rwrist 36.7595
rhand -17.3987 -37.6946
rfingers 7.12502
rthumb 8.85066 -67.489
lclavicle -1.17531e-014 9.54166e-015
lhumerus -10.7534 -9.51542 84.9666
lradius 68.9107
lwrist 24.642
lhand -31.0047 -20.1809
lfingers 7.12502
lthumb -4.28769 9.75564
rfemur -44.4119 1.38381 22.0731
rtibia 41.9327
rfoot -4.96501 5.07859
rtoes 1.76415
lfemur 10.1597 -0.680079 -24.4201
ltibia 39.0493
lfoot 18.2478 13.6623
ltoes 12.545
